<?xml version="1.0" encoding="UTF-8" standalone="no"?><svg xmlns="http://www.w3.org/2000/svg" xmlns:xlink="http://www.w3.org/1999/xlink" fill="#000000" height="517.8" preserveAspectRatio="xMidYMid meet" version="1" viewBox="-0.0 -0.5 385.2 517.8" width="385.2" zoomAndPan="magnify"><g fill="#e7191f" fill-rule="evenodd" id="change1_1" stroke-width="0"><path d="m619.26 380.4c-0.789-0.697-1.457-0.852-2.488-1.099-2.318-0.553-3.878 0.495-4.74 2.651-0.436 1.089-1.037 4.953-1.336 8.587-0.286 3.493-0.656 6.897-1.942 10.157-0.811 0.637-1.594 1.223-2.706 0.948-1.129-0.277-1.485-1.215-1.84-2.181v3.618c0.332 1.374 0.622 2.699 0.139 4.094-0.355 1.024-0.807 1.342-1.543 1.088-1.421-0.492-1.806-2.718-2.214-3.975-0.552-0.423-1.103-0.847-1.652-1.269-2.878 0-5.602 0.74-7.658 2.973-2.989 3.245-3.442 8.025-3.96 12.168-0.332 2.653-1.03 5.857-1.552 7.117-0.794 1.922-1.992 4.6-4.633 3.96-1.075-0.258-1.911-0.156-2.863 0.32 0-3.189 0.023-6.309 0.338-9.484 0.244-2.461-0.13-4.461-1.09-6.673l-0.673 1.625c-2.943 7.091-0.627 15.79 0.823 23.039 1.229 6.149 1.976 13.539-0.904 19.3-0.722 1.443-1.334 2.893-1.926 4.391-1.001 0.952-2 1.904-3.001 2.854-0.669 1.406-1.34 2.811-2.009 4.215-0.591 3.717 0.017 7.032 1.445 10.476 1.679 4.048 4.825 7.701 7.539 11.112 1.302 1.892 2.757 3.657 4.221 5.428 1.344 0.671 2.555 0.827 4.071 1.027 1.505 0.198 2.842 0.664 2.97 1.034 0.128 0.371-0.289 1.279-0.928 2.02-1.848 2.142-3.27 4.779-4.844 7.139-1.458 2.188-2.742 4.233-3.744 6.72-1.084 2.692-3.045 7.74-0.473 10.129 1.709 1.587 4.388 1.49 6.569 1.662 1.346-0.466 1.936-1.33 2.387-2.732 0.325-1.012 2.211-4.946 3.208-2.54 1.949 4.7-2.649 7.86-5.479 10.929-0.517 1.192-1.034 2.385-1.552 3.577 0.699-0.596 1.783-0.408 2.67-0.472 1.641-0.122 2.5-0.54 2.949-1.437 0.801-1.607 2.047-2.987 3.116-4.424 0.6-0.867 1.109-1.633 1.479-2.625 0.404-1.087 1.012-1.676 1.838-2.502 1.175-1.176 2.372-2.378 2.886-3.994 0.421-1.328 1.766-2.15 2.777-3.079 2.169-1.996 4.227-3.821 6.921-5.072 2.331-1.081 3.807-0.739 4.912 1.645 1.015 2.187 1.488 4.431 2.044 6.78 0.783 3.306 1.65 5.384 2.718 6.518l1.566 1.662 0.368 0.816c0.451 0.995 2.084 0.454 2.98 0.454 0.974 0 1.67 0.05 2.574 0.4 1.497 0.58 2.062 2.974 2.602 4.326-0.248 0.912-0.692 1.174-1.72 0.92-1.213-0.298-1.376-0.114-1.376 1.563 0 2.32 0.766 4.881 2.502 6.416 2.108 1.867 5.34 1.439 7.814 0.788 1.33-1.244 2.608-2.609 3.146-4.401 0.589-1.963-1.12-4.318-2.552-5.414-0.676-0.517-1.351-1.034-2.028-1.55-1.507-1.151 1.708-2.647 2.604-3.036 1.944-0.844 5.04-0.991 6.88 0.198 0.988 0.64 2.358 2.698 0.74 3.506-1.579 0.789 0.886 1.56 1.706 1.358 1.811-0.445 3.886 2.158 5.155 3.1 1.556 1.156 3.18 2.211 4.793 3.286 1.011 0.704 1.964 1.206 3.252 1.206 1.663 0 2.398-0.974 2.902-2.43 0.796-2.299-1.879-3.463-3.639-3.547-2.132-0.104-2.515-0.356-3.219-2.116-0.78-1.948-1.628-4.733-0.614-6.763 1.526-3.05 4.872-4.432 7.788-5.869 3.056-1.505 6.106-2.828 9.274-4.067l0.906-0.904c0.804-0.805 1.01-0.99 1.866-1.676 0.539-0.432 1.16-2.24 1.41-4.096 0.245-1.826 0.748-3.516 1.117-3.752 0.436-0.278 0.565-1.901 0.368-4.65-0.18-2.523-0.301-5.012-0.301-7.539 0-1.825-0.246-3.953-0.546-4.731-0.47-1.213-0.162-1.79 2.172-4.086 2.144-2.108 2.635-2.954 2.32-3.999-0.317-1.06-0.08-1.44 1.184-1.899 1.692-0.616 1.756-1.985 0.152-2.786l-1.137-0.568c1.052-0.491 2.104-0.98 3.156-1.471l1.389-0.559c1.143-0.461 1.663-0.888 2.454-1.836 2.157-2.588 2.072-5.426 0.954-8.605-1.662-4.736-3.932-9.255-6.066-13.791-0.504-1.724-1.01-3.446-1.514-5.17l1.656 1.473c2.816 2.504 6.636 3.177 10.142 1.912 2.453-0.885 1.9-3.669 2.116-5.856 0.27-2.752-0.311-4.816-1.438-7.243-0.993-0.722-1.984-1.432-3.16-1.838-0.82-0.284-1.324-1.168-1.58-2.774-0.202-1.272-0.32-2.398 0.714-3.209 0.848-0.424 1.694-0.848 2.541-1.272l0.923-1.105c1.39-1.671-0.246-4.914-1.691-6.192-1.463-1.294-3.015-1.382-4.452 0.234-2.16 2.432-2.448 5.204-2.448 8.246 0.923 2.193 2.047 3.954 3.565 5.784l-2.957 3.077c-2.427 2.523-3.063 3.195-3.541 3.736-0.347 0.391-0.99 0.457-1.578 0.164-0.686-0.344-0.882-0.947-0.636-1.965 0.195-0.808 0.047-2.38-0.328-3.495-0.528-1.56-1.041-1.883-2.429-1.332l-1.445 0.904c-0.795 0.499-1.888 1.061-2.431 1.252-0.739 0.26-1.153-0.211-1.648-1.864-0.505-1.687-0.487-2.347 0.081-2.789 0.41-0.32 1.499-1.254 2.422-2.072 1.272-1.132 1.496-1.632 0.928-2.08-1.138-0.892-2.586-0.822-3.715 0.046-1.719 1.32-2.845 2.37-3.068 4.747-0.168 1.785-0.472 2.427-1.056 2.224-1.636-0.567-2.519-3.131-3.243-4.657-0.753-1.587-0.986-4.227-0.453-5.944 0.284-0.915-0.392-0.442-1.125-0.26-1.087 0.266-1.931 8e-3 -2.879-0.466 0.471 1.22 0.94 2.439 1.411 3.659 0 0.757-0.228 1.304-0.514 2.023-0.469 1.188-0.698 1.24-2.776 0.617-1.501-0.449-2.165-0.96-1.973-1.516 0.16-0.461 1.016-1.153 1.903-1.539 0.888-0.385 1.528-1.01 1.425-1.39-0.169-0.615-0.452-0.558-2.615 0.524-1.334 0.666-2.694 1.713-3.022 2.322-0.835 1.555-3.49 1.715-5.032 2.036-0.795 0.399-1.418 0.763-2.022 1.439-1.133 1.268-3.756 1.304-5.341 1.577l-1.808 0.92c-1.265 0.644-1.815 0.902-2.351-0.378l0.2-1.176c0.142-0.82-0.141-1.175-0.936-1.175-4.428 0-7.848-3.42-10.669-6.376-0.724-1.668-1.261-3.275-1.261-5.135 0-3.425 2.998-4.789 5.977-5.422 3.105-0.659 3.127-0.679 2.547-2.395-0.714-2.111-2.302-2.884-4.426-2.28-2.249 0.641-3.708 1.955-5.474 3.52-1.515 1.34-3.338 3.197-2.591 5.356 0.535 1.544-0.78 2.479-2.188 2.479-2.529 0-2.892-2.087-2.892-4.216 0-3.382-2.195-6.188-3.588-9.12-1.485-3.131-0.323-6.652 1.112-9.52 1.261-2.523 2.519-5.046 3.773-7.571 1.08-2.172 2.079-4.949 2.219-6.169 0.155-1.352-0.051-2.49-0.527-2.911zm-22.494 125.83c-1.118-0.812-2.051-0.675-3.415-0.675-2.125 1.217-4.389 1.851-6.744 2.485l1.879 1.996c1.597 1.698 2.434 3.643 3.162 5.799 0.644-0.103 0.931-0.484 1.384-0.968 0.723-0.768 0.864-0.767 1.136 0.017 0.467 1.35 3.095 1.879 3.95 0.706 0.364-0.502 0.662-2.028 0.662-3.394 0-2.138-0.216-4.658-2.014-5.966zm41.952-64.511l-0.734-1.24c-0.201-0.221-0.402-0.444-0.604-0.665-1.341 1.589-2.584 3.162-3.194 5.202-0.478 1.594-0.476 2.339 6e-3 2.719 0.367 0.288 1.655 0.523 2.863 0.523 1.209 0 2.677-0.247 3.265-0.55 1.05-0.54 1.751-0.013 2.551 0.612 1.096 0.844 2.193 1.668 3.436 2.29 1.195 0.596 1.327 0.509 1.327-0.876 0-1.186-0.171-2.096-0.52-3.232-0.431-1.4-0.956-1.759-3.047-2.079-1.653-0.255-3.141-0.704-4.616-1.464z" fill="inherit" transform="translate(-451.22 -331.38)"/><path d="m607.3 532.04c-2.828-0.847-6.386-1.602-9.178-0.278-1.896 0.899-2.842 1.958-4.069 3.57-0.872 1.146-1.787 1.226-3.049 0.973-0.523 0.212-0.619 0.5-0.384 1.08 0.176 0.436-0.072 2.529-0.552 4.651-1.046 4.616-1.54 9.146-1.54 13.872 0.181 0.1 0.361 0.201 0.541 0.301-1.005 0.423-2.011 0.847-3.016 1.269-1.644 0.99-2.909 1.872-4.22 3.294-2.943 3.196-4.503 7.084-5.535 11.238-1.489 5.995-1.069 12.184 0.168 18.195 1.443 2.231 3.012 4.137 5.496 5.215 4.742 2.057 9.883 2.673 15.016 1.801 1.84-0.313 3.584-0.637 4.699-2.169 0.867-1.735 1.78-3.386 2.803-5.035 2.133-3.44 3.564-6.959 4.72-10.817 0.466-2.54-0.131-4.786-0.794-7.243l-0.32-0.367c-0.497-0.568-0.974-1.153-1.456-1.734-0.71-0.856-1.012-1.88-0.801-2.731 0.445-1.811-1.533-2.037-2.788-1.603-1.319 0.456-3-1.445-4.079-1.985-0.805-0.403-1.566-0.812-2.316-1.308-1.596-1.057-0.221-1.797 1.098-1.797 2.333 0 4.709-1.162 6.089-2.963 0.612-0.799 1.219-1.599 1.823-2.403 1.51-2.014 3-3.793 5.24-4.913 1.178-0.589 1.622-1.196 1.432-1.955-0.152-0.604-6e-3 -2.592 0.326-4.416 0.332-1.825 0.98-4.354 1.44-5.622 0.654-1.795 1.586-2.488 3.311-2.912l0.353-0.707c0.195-0.389-0.052-0.848-0.546-1.019-0.498-0.172-1.139 0.17-1.438 0.766-0.509 1.017-0.697 1.002-3.46-0.274-1.608-0.742-3.865-1.63-5.014-1.974zm-16.034 28.661c-1.509-1.609-5.656-1.068-6.637 0.895-0.399 0.797 1.155 0.645 1.549 0.645 1.432 0.401 2.864 0.804 4.295 1.205h1.171c1.133 0 2.092-0.476 3.068-0.98l-1.314-0.446c-0.954-0.324-1.445-0.586-2.132-1.319z" fill="inherit" transform="translate(-451.22 -331.38)"/><path d="m653.55 559.14c-4.928-1.442-9.146 0.909-12.549 4.31-3.611 3.612-6.195 8.915-4.9 14.123 0.364 1.467 0.816 2.839 1.003 3.049 0.946 1.062 1.926 2.092 2.892 3.135 1.684 0.841 3.366 1.683 5.049 2.524-1.771 1.659-3.541 3.319-5.312 4.977-0.763 0.582-1.525 1.164-2.288 1.747 5.029-0.995 10.46-1.877 15.551-0.877 2.246 0.442 4.441-0.686 6.302-1.803 2.79-1.675 3.682-4.571 5.226-7.272 0.633-1.108 1.258-2.213 1.841-3.349 1.208-2.355 3.471-4.284 5.163-6.322-1.682 0.742-3.362 1.483-5.042 2.224l-1.266 0.311c-2.31 0.569-2.506-1.415-2.506-3.279 0-3.406 1.114-6.768 1.99-10.03l-2.116 0.634c-1.792 0.536-2.319 0.458-3.439-0.514-1.24-1.078-2.539-2.079-3.843-3.075z" fill="inherit" transform="translate(-451.22 -331.38)"/><path d="m559.79 808.78c-1.273-0.55-2.279-0.78-3.661-0.893-2.935-0.241-6.902 1.145-8.974 3.217-1.084 1.084-2.14 2.148-3.073 3.371-1.277 1.673-2.381 4.34-1.763 6.487 0.482 1.666 1.312 3.14 2.099 4.684 1.052 0.774 2.101 1.55 3.137 2.345 1.335 1.023 3.118 2.181 4.888 1.74 0.683-0.171 2.419 0.087 3.858 0.571 1.438 0.485 3.144 0.91 3.79 0.945 1.206 0.065 3.755-0.396 2.547-2.056-0.908-1.249-0.111-2.553 0.42-3.777 1.689-1.327 1.785-3.139 1.88-5.26 0.204-4.652-0.609-9.403-5.148-11.374z" fill="inherit" transform="translate(-451.22 -331.38)"/><path d="m576.56 680.8c-2.145-1.026-5.368-2.02-7.741-1.186-1.967 0.691-3.887 1.544-5.221 3.146-2.138 2.565-3.787 6.673-2.208 9.829 0.894 1.789 1.802 3.336 3.272 4.7 2.662 2.471 7.329 4.472 10.916 3.059 2.689-1.062 5.018-3.271 5.75-6.208 0.323-1.295 0.568-2.43 0.568-3.76 0-1.444 0.063-1.464 2.624-0.828 2.175 0.54 5.183 0.5 5.698-2.296 0.354-1.931-1.47-3.699-3.196-4.135-1.576-0.399-3.655 0.943-5.063 1.565 0.243 0.796-1.42-1.09-1.672-1.322-1.208-1.114-2.247-1.856-3.727-2.564z" fill="inherit" transform="translate(-451.22 -331.38)"/><path d="m547.4 723.19c-2.837-0.829-5.606-0.749-7.956 1.056-1.852 4.053-3.094 9.107-1.673 13.515 0.471 1.46 1.249 3.756 2.672 4.588 0.573 0.336 1.084 0.741 1.611 1.148 3.941 3.029 10.397 2.097 14.577-0.031 4.645-2.361 3.073-8.296 0.904-11.879-1.657-2.737-4.599-4.994-7.119-6.92-1.001-0.765-1.805-1.122-3.016-1.477z" fill="inherit" transform="translate(-451.22 -331.38)"/><path d="m568.6 606.28c-3.085-1.339-7.578-0.712-9.61 2.083-2.618 3.598-2.846 7.95-0.486 11.848 1.55 2.558 4.562 3.549 7.471 3.549 3.707 0 7.199-2.515 8.119-6.228 1.109-4.479-1.308-9.435-5.494-11.252z" fill="inherit" transform="translate(-451.22 -331.38)"/><path d="m781.34 492.31c-1.173-0.782-4.172-1.1-5.269-2e-3 -1.577 1.577-3.153 3.154-4.731 4.73-0.121 0.172-0.242 0.343-0.364 0.515-1.889 0.252-3.777 0.503-5.668 0.755 1.548 0.577 2.579 1.061 2.762 2.924 0.105 1.08-0.106 3.33-0.467 5-0.588 2.712-0.547 3.062 0.396 3.296 0.581 0.141 1.677-0.152 2.437-0.655 2.271-1.504 4.608-1.443 7.251-1.156 2.675 0.291 5.783 0.256 7.017-2.589 1.819-4.191 0.568-10.19-3.364-12.818z" fill="inherit" transform="translate(-451.22 -331.38)"/><path d="m489.88 589.57c-2.699-2.856-8.172-3.248-10.839-0.31-1.433 1.579-2.094 4.088-2.094 6.222 0 2.358 1.314 5.25 3.024 6.838 0.978 0.908 1.714 1.219 3.004 1.596 2.278 0.668 4.362 0.82 6.593-0.317 2.079-1.057 2.2-3.345 3.092-5.227 0.896-1.892-0.235-4.609-0.689-6.528-0.672-0.78-1.384-1.525-2.091-2.274z" fill="inherit" transform="translate(-451.22 -331.38)"/><path d="m836.42 592.4c-1.869 0.093-3.661 1.543-5.202 2.496-2.548 0.635-4.884 1.048-7.526 0.52-1.732-0.347-3.19-0.689-4.762-1.476-1-0.5-1.972-0.895-3.079-0.999-1.511-1.512-3.087-2.936-4.689-4.35-0.974-2.815 1.012-4.343 3.67-5.155 2.855-0.872 4.704-0.401 7.226 0.815 2.844 1.372 5.881 2.253 8.872 3.262 1.406 0.603 2.814 1.206 4.221 1.81l0.635 0.03c0.032 0.032 0.634 0.032 0.634 0.032z" fill="inherit" transform="translate(-451.22 -331.38)"/><path d="m728.22 493.53c-1.537-1.117-4.828-0.83-6.424-0.012-0.924 0.475-1.82 0.979-2.713 1.508-1.907 1.127-2.561 3.287-3.017 5.302-0.808 3.572 2.424 4.921 5.188 5.884 1.23 0.428 2.101 1.253 2.469 2.344 0.985 2.913 5.277 3.493 7.105 0.978 0.968-1.33 1.308-2.313 0.336-3.781-1.342-2.027-1.437-3.756-1.142-6.163 0.28-2.288 0.121-4.661-1.802-6.06z" fill="inherit" transform="translate(-451.22 -331.38)"/><path d="m559.34 476.71c-0.707-0.625-2.355-1.101-4.091-1.183-1.6-0.076-3.195 0.148-3.544 0.498-0.444 0.444-0.992 0.938-1.825 1.649-2.876 2.452-3.052 8.099-0.112 10.549 2.654 2.212 5.477 2.947 8.67 1.322 4.49-2.283 4.408-9.734 0.902-12.835z" fill="inherit" transform="translate(-451.22 -331.38)"/><path d="m601.2 599.65c-0.358-0.716-1.048-1.418-1.535-1.561-1.621-0.476-0.492 2.592-0.28 3.121 0.876 2.191-0.797 4.599-1.187 6.766-0.669 3.726 0.732 7.345 4.988 7.345 2.536 0 5.215-1.585 6.97-3.256 2.338-2.224 2.088-5.405 0.774-8.032-1.076-0.792-2.149-1.587-3.21-2.399-1.546-1.18-2.638-1.477-4.435-1.034-1.077 0.265-1.596 0.029-2.085-0.95z" fill="inherit" transform="translate(-451.22 -331.38)"/><path d="m700.36 468.74c-2.296-1.802-5.427 0.404-5.626 3.107-0.097 1.321 0.118 2.2 1.154 2.944 1.34 0.955 0.949 2.829 0.796 4.325-0.276 2.699-0.415 6.387 2.954 6.923 2.506 0.399 4.784-0.719 6.866-1.945 1.838-1.084 3.742-4.107 2.688-6.215-0.946-1.892-3.607-2.76-5.402-3.628-1.332-0.447-1.83-1.327-2.168-2.74-0.286-1.203-0.854-2.448-1.262-2.771z" fill="inherit" transform="translate(-451.22 -331.38)"/><path d="m797.72 511.8c-2.83-2.358-6.438-1.097-9.388 0.104-1.087 0.442-2.274 1.038-2.638 1.323-0.462 0.364-0.372 0.748 0.306 1.279 0.53 0.417 1.234 2.284 1.564 4.148 0.492 2.784 1.15 4.945 3.321 6.65 3.345 1.672 6.063-2.786 7.212-5.264 1.037-2.236 1.791-6.434-0.377-8.24z" fill="inherit" transform="translate(-451.22 -331.38)"/><path d="m753.22 522.17c-1.056-0.973-2.717-1.853-3.692-1.956-2.024-0.216-2.758 0.378-3.536 2.167-0.893 2.059-1.192 6.072 0.084 8.045 1.038 1.602 2.274 2.391 4.166 2.944 2.46 0.72 7.766 1.163 7.766-2.761 0-3.205-2.602-6.425-4.788-8.439z" fill="inherit" transform="translate(-451.22 -331.38)"/><path d="m797.58 560.28c-2.844-0.784-5.091-0.192-7.875 0.576-1.38 0.38-1.538 0.726-1.538 3.349 0 3.089 0.386 7.752 4.029 8.675 1.995 0.505 4.327-1.644 5.492-2.955 1.255-1.412 1.885-2.788 2.633-4.512 0.563-2.291-0.218-4.437-2.741-5.133z" fill="inherit" transform="translate(-451.22 -331.38)"/><path d="m534.57 588.26l-2.196-0.085c-1.241 0-1.768 0.014-2.778 0.79-1.348 1.036-1.984 2.487-1.984 4.198 0 2 1.024 4.316 2.486 5.609 1.412 1.248 3.628 2.295 5.546 1.549 1.226-0.477 1.798-1.041 2.678-2.032 1.836-2.065 0.66-4.74 0.146-7.161-1.004-1.644-1.76-2.785-3.898-2.868z" fill="inherit" transform="translate(-451.22 -331.38)"/><path d="m699.84 396.32l-2.199-0.548h-2.35c-1.527 0.939-2.655 1.768-2.878 3.723-0.409 3.569 2.379 8.34 6.371 8.34 3.661 0 4.825-4.58 5.673-7.412 0.624-2.088 0.574-2.257-0.878-2.887-1.235-0.534-2.432-0.89-3.739-1.216z" fill="inherit" transform="translate(-451.22 -331.38)"/><path d="m770.32 535.56c-1.009-1.986-3.463-2.758-5.509-1.755-2.308 1.133-4.598 4.019-4.892 6.587-0.324 2.833 1.296 3.762 3.633 4.461 1.937 0.58 4.064 0.441 5.603-0.861 2.47-2.09 2.566-5.675 1.165-8.432z" fill="inherit" transform="translate(-451.22 -331.38)"/><path d="m749.6 474.49l-1.774-0.843c-0.602-0.057-1.068 0.204-1.571 0.54-1.757 1.172-0.633 4.576-0.175 6.082 0.94 3.097 2.776 4.329 5.894 4.938 1.62 0.318 3.641 0.408 4.493 0.202 2.441-0.59 1.477-2.983 0.705-4.498-0.606-1.19-1.109-1.873-2.142-2.714-1.716-1.396-3.415-2.75-5.43-3.707z" fill="inherit" transform="translate(-451.22 -331.38)"/><path d="m599.21 640.9c-0.748-1.495-1.263-1.763-3.664-1.9-1.537-0.088-3.265 0.144-3.843 0.514-0.798 0.515-1.101 1.727-1.27 5.11l-0.224 4.434 0.296 1.202c0.722 2.934 4.44 1.105 5.893-0.032 2.491-1.95 4.265-6.42 2.812-9.328z" fill="inherit" transform="translate(-451.22 -331.38)"/><path d="m695.65 360.84c-1.229-0.894-4.837-1.147-5.819 0.261-1.145 1.641-1.78 3.243-1.78 5.199 0 2.242 1.478 3.353 3.271 4.201 3.325 1.572 5.927-1.624 6.271-4.631 0.222-1.949-0.378-3.893-1.943-5.03z" fill="inherit" transform="translate(-451.22 -331.38)"/><path d="m630.75 612.28c-0.91-1.775-3.484-1.867-5.008-0.94-1.84 1.121-3.921 2.968-4.448 5.102-0.925 3.766 4.68 5.378 7.391 4.336 3.08-1.184 3.372-5.954 2.065-8.498z" fill="inherit" transform="translate(-451.22 -331.38)"/><path d="m574.51 384.21l-0.752-1.852c-1.651-0.825-0.574 2.149-0.26 2.835 0.552 1.204 1.046 3.782-1.062 3.145l-1.334-0.404c0.242-0.833-0.74 1.121-0.86 1.325-0.598 1.026-1.148 2.05-1.655 3.122-0.619 1.306-0.461 2.488-0.135 3.816 1.096 0.797 2.2 1.538 3.452 2.082 1.682 0.73 3.216 0.367 3.976-1.386 1.662-3.828 0.124-9-1.37-12.683z" fill="inherit" transform="translate(-451.22 -331.38)"/><path d="m730.64 350.56c-1.853-0.763-3.607-1.39-5.599-0.555-1.341 0.563-1.648 1.133-1.872 3.492-0.2 2.101-0.156 5.133 2.471 5.616 1.779 0.327 4.351-0.561 5.763-1.669 2.281-1.792 1.989-5.752-0.763-6.884z" fill="inherit" transform="translate(-451.22 -331.38)"/><path d="m720.53 386.2l-0.185-0.677h-0.932c-0.656 2.261-3.591 2.12-5.599 2.419l-1.638 1.2c-1.562 1.116-1.515 3.361-0.499 4.932 1.543 2.384 5.347 4.208 7.572 1.538 1.823-2.188 1.348-6.04 1.467-8.734z" fill="inherit" transform="translate(-451.22 -331.38)"/><path d="m799.33 533.18c-1.826-0.757-3.8-0.635-5.138 0.953-1.947 2.314-2.607 6.792 0.746 8.247 2.796 1.213 5.588 0.296 6.478-2.771 0.585-2.02 0.21-5.476-2.086-6.429z" fill="inherit" transform="translate(-451.22 -331.38)"/><path d="m704.3 332.96c-0.942-1.839-4.934-2.067-6.452-0.906-2.737 2.094-2.401 7.28 1.087 8.303 2.176 0.637 3.943-0.173 5.183-1.879 1.189-1.634 1.038-3.85 0.182-5.518z" fill="inherit" transform="translate(-451.22 -331.38)"/><path d="m605.26 625.26c-0.95-1.901-3.925-2.666-5.688-1.312-1.004 0.772-1.345 1.498-1.876 2.656-0.578 1.268-0.705 2.303-0.265 3.575 1.816 1.513 5.012 3.309 7.004 0.919 1.372-1.647 1.855-3.778 0.825-5.838z" fill="inherit" transform="translate(-451.22 -331.38)"/><path d="m614.82 360.22l-1.561-4.917c-0.201-0.984-0.403-1.968-0.603-2.953l-0.572 1.176c-2.562 5.266-0.698 11.561 1.559 16.652 0.64 1.445 1.139 1.913 1.629 1.528 0.39-0.306 0.798-1.908 0.908-3.562 0.136-2.033-0.304-4.598-1.36-7.924z" fill="inherit" transform="translate(-451.22 -331.38)"/><path d="m562.62 593.06c-0.888-1.776-4.949-2.592-6.188-0.825-1.1 1.569-1.388 3.768-0.488 5.568 0.896 1.791 3.764 2.711 5.536 1.803 1.962-1.007 1.995-4.836 1.14-6.546z" fill="inherit" transform="translate(-451.22 -331.38)"/><path d="m738.26 510.86c-1.842-1.339-4.742-1.363-6.236 0.408-1.267 1.5-1.035 3.053-0.199 4.649 1.131 2.159 4.809 3.227 6.541 1.148 1.176-1.412 1.562-4.992-0.106-6.205z" fill="inherit" transform="translate(-451.22 -331.38)"/><path d="m792.66 418.88c-1.199-1.269-4.043-2.969-5.092-0.665-0.904 1.984-0.603 4.535-0.603 6.668l2.588 0.288c1.885 0.209 5.253 0.128 5.253-2.508 0-1.859-0.934-2.5-2.146-3.783z" fill="inherit" transform="translate(-451.22 -331.38)"/><path d="m675.72 352.56c-0.477-1.974-2.796-2.286-4.443-1.489-1.545 0.748-3.073 2.359-3.5 4.049-0.702 2.778 3.398 4.12 5.444 3.326 2.052-0.795 2.976-3.916 2.499-5.886z" fill="inherit" transform="translate(-451.22 -331.38)"/><path d="m823.91 611c-1.808-1.421-6.791-2.62-6.791 0.995 0 1.497 0.896 4.883 2.488 5.435 0.838 0.289 1.391-0.075 2.214-0.395 1.494-0.583 4.866-2.34 3.602-4.293-0.46-0.711-0.85-1.22-1.513-1.742z" fill="inherit" transform="translate(-451.22 -331.38)"/><path d="m556.24 504.34c-1.086-1.009-2.268-2.009-3.808-1.268-1.958 0.941-2.749 4.077-1.945 5.927 0.827 1.906 3.408 2.409 5.188 1.52 1.844-0.923 1.955-4.89 0.565-6.179z" fill="inherit" transform="translate(-451.22 -331.38)"/><path d="m577.22 640.32c-0.612-1.207-1.212-2.08-2.564-2.08-0.688 0.689-1.382 1.36-2.142 1.97-1.42 1.139-0.888 3.655-0.049 4.952 1.075 1.659 3.221 1.858 4.649 0.531 1.878-1.743 1.068-3.477 0.106-5.373z" fill="inherit" transform="translate(-451.22 -331.38)"/><path d="m719.68 437.86c-1.373-0.57-4.78-1.09-5.617 0.585-0.875 1.751 0.521 4.183 1.796 5.311 0.972 0.861 2.539 1.969 3.575 0.546 0.394-0.544 0.866-2.11 1.048-3.481 0.27-2.055 0.13-2.575-0.802-2.961z" fill="inherit" transform="translate(-451.22 -331.38)"/><path d="m566.35 455.73c-0.875-1.691-3.375-1.312-4.695-0.522-1.776 1.06-3.5 3.483-1.675 5.178 1.668 1.549 4.064 1.39 5.564-0.296 1.152-1.296 1.632-2.762 0.806-4.36z" fill="inherit" transform="translate(-451.22 -331.38)"/><path d="m808.85 444.19c-0.401-1.162-0.903-1.366-3.337-1.366-1.576 0-3.29 0.28-3.81 0.622-1.65 1.09-0.069 2.452 0.852 3.22 1.24 1.035 3.615 2.538 5.314 1.688 1.454-0.726 1.433-2.862 0.981-4.164z" fill="inherit" transform="translate(-451.22 -331.38)"/><path d="m602.22 657.14c-0.903-1.767-3.58-2.592-4.943-0.866-1.921 2.434-0.59 5.251 2.196 5.936 3.09 0.762 3.731-3.141 2.747-5.07z" fill="inherit" transform="translate(-451.22 -331.38)"/><path d="m562.6 748.55c0-1.626-0.296-2.503-0.904-2.682-1.204-0.354-2.241 1.419-2.857 2.196l-0.571 1.904c-0.529 1.768-0.315 4.915 1.865 5.568 1.054 0.316 1.331 2e-3 1.854-2.1 0.42-1.692 0.613-3.145 0.613-4.886z" fill="inherit" transform="translate(-451.22 -331.38)"/><path d="m812.9 608.16c0-1.747-0.234-2.101-1.508-2.281-1.846-0.26-2.764 1.045-4.036 2.132-0.858 0.732-1.154 1.509-0.926 2.434 0.264 1.07 0.887 1.431 2.934 1.7 2.164 0.287 2.676 0.155 3.068-0.786 0.457-1.106 0.468-1.994 0.468-3.199z" fill="inherit" transform="translate(-451.22 -331.38)"/><path d="m508.68 615.37l-1.448-1.288-0.964-0.288c-2.051-0.61-2.171 2.718-2.171 3.892 0 2.043 0.225 2.502 1.367 2.776 1.682 0.408 4.664-0.197 4.664-2.337 0-0.807-0.652-2.048-1.448-2.755z" fill="inherit" transform="translate(-451.22 -331.38)"/><path d="m706.76 510.16c-1.826-1.435-5.479-0.963-5.926 1.575-0.282 1.598 0.799 3.46 2.631 3.46 0.996 0 1.603-0.032 2.481-0.486 1.195-0.617 1.998-3.618 0.814-4.549z" fill="inherit" transform="translate(-451.22 -331.38)"/><path d="m797.23 453.42c-0.601-1.654-3.076-2.953-4.348-1.137-0.597 0.855-0.797 1.483-0.986 2.512-0.372 2.025 1.32 3.104 3.157 3.104 2.417 0 2.853-2.617 2.177-4.479z" fill="inherit" transform="translate(-451.22 -331.38)"/><path d="m514.73 575.83c-1.41-2.18-3.964-1.574-5.207 0.211 0 1.631 0.301 3.965 2.169 4.527 2.819 0.845 4.426-2.594 3.038-4.738z" fill="inherit" transform="translate(-451.22 -331.38)"/><path d="m703.13 347.42c0-1.015-0.412-1.359-1.809-1.508-1.883-0.202-2.62 0.708-3.952 1.776-1.05 0.842-1.612 4.664 0.305 4.664 1.372 0 2.164-1.354 2.871-2.326l1.293-0.646c0.727-0.364 1.292-1.22 1.292-1.96z" fill="inherit" transform="translate(-451.22 -331.38)"/><path d="m706.12 435.35c-0.72-0.567-1.25-0.648-2.164-0.775-1.705-0.237-1.469 1.08-2.498 1.888-0.367 0.288-0.4 1.052-0.083 1.968 0.641 1.851 2.264 2.178 3.835 1.162 1.141-0.739 2.294-3.156 0.91-4.243z" fill="inherit" transform="translate(-451.22 -331.38)"/><path d="m575.15 522.66c-0.71-0.628-0.979-0.83-1.92-0.83-1.427 0-1.975 1.046-3.08 1.935-0.455 0.364-0.655 1.008-0.444 1.428 0.578 1.159 2.94 2.34 4.226 1.989 1.407-0.384 2.374-3.501 1.218-4.522z" fill="inherit" transform="translate(-451.22 -331.38)"/><path d="m550.57 517.69c-0.892-1.784-2.942-1.43-4.03-0.056-1.443 1.821-0.091 4.198 2.148 4.198 2.29 0 2.806-2.293 1.882-4.142z" fill="inherit" transform="translate(-451.22 -331.38)"/><path d="m622.83 358.54c0.16-2.036-0.351-3.761-1.123-5.59-0.508 1.766-1.016 3.534-1.524 5.301l-0.195 2.071c-0.157 1.674 0.28 3.02 1.007 4.47 0.877-2.024 1.659-4.017 1.835-6.252z" fill="inherit" transform="translate(-451.22 -331.38)"/><path d="m737.51 350.84c0-1.493-0.271-2.715-0.603-2.715-1.532 0-2.531 1.612-2.787 2.926-0.373 1.916 0.211 3.65 2.25 4.152 1.232 0.304 1.501 0.176 1.341-0.635-0.247-1.241-0.201-2.463-0.201-3.728z" fill="inherit" transform="translate(-451.22 -331.38)"/><path d="m566.68 837.48c-0.702-0.621-0.968-0.809-1.898-0.809-1.646 0-2.191 1.676-2.191 2.951 0 1.812 1.524 2.477 2.997 2.477 1.934 0 2.306-3.545 1.092-4.619z" fill="inherit" transform="translate(-451.22 -331.38)"/><path d="m455.98 548.87c-1.601-1.257-4.768-6e-3 -4.768 2.162 0 1.654 1.715 2.161 3.08 2.161 1.296 0 1.65-0.344 1.955-1.911 0.211-1.084 0.096-2.128-0.267-2.412z" fill="inherit" transform="translate(-451.22 -331.38)"/><path d="m528.85 638.72c0.673-1.553 0.61-1.721-0.858-2.285-1.34-0.514-2.47-0.307-3.756 0.13 0.484 0.711 0.472 1.451 0.575 2.314 0.169 1.413 0.981 2.684 2.521 1.913 0.943-0.471 1.096-1.101 1.518-2.072z" fill="inherit" transform="translate(-451.22 -331.38)"/><path d="m519.52 604.43c0.548-1.852-0.806-0.981-1.856-0.54-1.574 0.663-3.679 2.007-3.166 4.091 0.596 2.422 3.091 0.928 3.791-0.535 0.48-1.001 0.916-1.953 1.231-3.016z" fill="inherit" transform="translate(-451.22 -331.38)"/><path d="m556.56 782.36c-1.362-2.655-4.59 0.23-4.064 2.372 0.48 1.945 2.802 1.606 4.127 0.944 0.287-1.136 0.509-2.203-0.063-3.316z" fill="inherit" transform="translate(-451.22 -331.38)"/><path d="m671.71 401.81l-1.385-0.602c-1.384 0-1.734 0.899-1.976 2.271-0.32 1.804-0.207 2.305 0.55 2.439 1.451 0.257 3.544-0.86 3.907-2.336 0.199-0.81-0.14-1.356-1.096-1.772z" fill="inherit" transform="translate(-451.22 -331.38)"/><path d="m681.52 387.54c-0.71-1.42-2.032-0.72-2.898-0.052-0.74 0.573-1.1 0.996-1.518 1.833-0.811 1.619 2.049 2.383 3.229 2.175 1.356-0.24 1.679-2.974 1.187-3.956z" fill="inherit" transform="translate(-451.22 -331.38)"/><path d="m637.89 392.12c0.134-1.43 0.076-2.683-0.129-2.786-0.696-0.348-1.228 0.824-1.675 1.352-0.716 0.847-1.436 2.276-1.602 3.176-0.222 1.21-0.036 1.686 0.705 1.816 2.144 0.379 2.548-1.929 2.701-3.558z" fill="inherit" transform="translate(-451.22 -331.38)"/><path d="m641 546.7c-0.742-0.131-1.449-0.14-2.204-0.14-2.286 0-1.365 2.949-0.206 3.916 1.724 1.436 2.569-0.16 2.88-1.847 0.222-1.213 0.072-1.833-0.47-1.929z" fill="inherit" transform="translate(-451.22 -331.38)"/><path d="m656.92 416.25c-0.2-0.977-0.608-1.777-0.904-1.777s-0.81 1.1-1.143 2.444c-0.331 1.344-0.448 3.122-0.259 3.952 0.212 0.937 0.658 1.4 1.174 1.221 0.457-0.159 0.981-1.137 1.165-2.175 0.183-1.038 0.168-2.686-0.033-3.665z" fill="inherit" transform="translate(-451.22 -331.38)"/><path d="m601.17 345.99c-0.345-1.807-0.888-3.286-1.206-3.286-0.319 0-0.718 0.582-0.887 1.294-0.169 0.71 0.172 2.814 0.759 4.673l1.068 3.381h0.413c0.356-2.057 0.249-3.992-0.147-6.062z" fill="inherit" transform="translate(-451.22 -331.38)"/><path d="m682.14 405.66c-1.454-2.906-5.694 1.966-2.644 3.022 1.898 0.656 3.532-1.246 2.644-3.022z" fill="inherit" transform="translate(-451.22 -331.38)"/><path d="m714.82 362.57c-0.593-1.43-3.1-1.647-3.591-0.023-0.432 1.427 0.96 2.176 2.015 2.704 1.412 0.707 1.927-1.836 1.576-2.681z" fill="inherit" transform="translate(-451.22 -331.38)"/><path d="m554.91 774.22c-0.838-1.615-4.135-0.453-3.567 1.187 0.384 1.11 1.817 2.389 3.132 1.934 1.291-0.446 0.904-2.216 0.435-3.121z" fill="inherit" transform="translate(-451.22 -331.38)"/><path d="m756.35 436.07l-1.169-1.087c-1.437 0-1.567 0.916-1.809 2.183 0.5 1 1.093 1.584 2.25 1.869 2.246 0.554 1.93-1.85 0.728-2.965z" fill="inherit" transform="translate(-451.22 -331.38)"/><path d="m480.32 509.49c0.324-1.337 0.167-1.672-0.883-1.88-1.826-0.364-2.676 0.636-2.246 2.407 0.306 1.268 0.685 1.602 1.57 1.385 0.64-0.157 1.343-1.017 1.559-1.912z" fill="inherit" transform="translate(-451.22 -331.38)"/><path d="m619.29 592.38c0-1.877-2.875-2.264-3.404-0.475-0.805 2.727 3.404 2.942 3.404 0.475z" fill="inherit" transform="translate(-451.22 -331.38)"/><path d="m728.63 364.33c-0.364-0.287-0.96-0.521-1.321-0.521-1.896 0-2.308 3.326-0.375 3.996 1.323 0.457 2.718-2.671 1.696-3.475z" fill="inherit" transform="translate(-451.22 -331.38)"/><path d="m494.59 525.72c-1.309-2.527-3.946 1.914-1.466 2.944 1.77 0.734 2.098-1.722 1.466-2.944z" fill="inherit" transform="translate(-451.22 -331.38)"/><path d="m663.29 412.68c0.4-0.924 0.57-1.984 0.378-2.356-0.624-1.211-1.904 1.761-2.188 2.373-0.598 1.289-0.989 2.607-1.401 3.965 0.827-0.769 1.655-1.537 2.483-2.305z" fill="inherit" transform="translate(-451.22 -331.38)"/><path d="m538.33 462.99c0.218-1.186 0.016-1.836-0.678-2.183-1.342-0.671-2.367 1.091-1.96 2.263 0.173 0.501 0.769 1.069 1.322 1.261 0.746 0.259 1.086-0.087 1.316-1.341z" fill="inherit" transform="translate(-451.22 -331.38)"/><path d="m580.69 676.7c0-1.085-0.318-1.673-0.906-1.673-1.476 0-2.492 1.82-1.336 2.842 1.362 1.204 2.242 0.53 2.242-1.169z" fill="inherit" transform="translate(-451.22 -331.38)"/><path d="m550.97 629.24l-0.292-1.181c-0.924-0.463-1.552-0.427-2.276 0.489-0.828 1.047-0.826 1.236 0.019 1.85 1.06 0.772 2.953 0.484 2.549-1.158z" fill="inherit" transform="translate(-451.22 -331.38)"/><path d="m553.26 758.15c0.244-0.704-0.05-1.264-0.88-1.678-1.042-0.522-1.31-0.408-1.634 0.688-0.342 1.158 0.304 2.549 1.555 2.208 0.711-0.194 0.717-0.52 0.959-1.218z" fill="inherit" transform="translate(-451.22 -331.38)"/><path d="m653.18 377.92c-1.171-2.341-3.84 1.384-1.383 1.989 1.628 0.4 1.939-0.877 1.383-1.989z" fill="inherit" transform="translate(-451.22 -331.38)"/><path d="m681.37 568.03l0.7-0.963c-2.261 0-4.624 1.988-6.625 3.015 1.988 0 4.649-0.297 5.925-2.052z" fill="inherit" transform="translate(-451.22 -331.38)"/><path d="m542.14 646.98c-0.729-0.602-1.224-0.905-1.477-0.905-0.652 0-0.625 0.837-0.792 1.407-0.545 1.87 1.127 0.993 2.221 0.704 1.103-0.291 1.104-0.334 0.048-1.206z" fill="inherit" transform="translate(-451.22 -331.38)"/><path d="m689.26 414.23c0-1.786-1.676-2.02-2.183-0.314-0.282 0.946-0.061 1.33 0.904 1.568 1.056 0.26 1.279 0.041 1.279-1.254z" fill="inherit" transform="translate(-451.22 -331.38)"/><path d="m525.2 701.71l-0.804-0.142c-1.476 0-1.261 2.394-0.05 2.812 1.334 0.463 2.016-2.465 0.854-2.67z" fill="inherit" transform="translate(-451.22 -331.38)"/><path d="m569.23 848.74l-0.763-2.572 1.287 0.316c0.706 0.173 1.285 0.753 1.285 1.286v0.97h-1.809z" fill="inherit" transform="translate(-451.22 -331.38)"/><path d="m589.24 391.78l-1.248-0.828c-0.423-0.201-0.846-0.401-1.27-0.603l0.287 1.422c0.233 1.165 0.575 1.369 1.881 1.129 1.568-0.289 1.575-0.308 0.35-1.12z" fill="inherit" transform="translate(-451.22 -331.38)"/><path d="m652.38 549.9c-0.23-1.297-2.398-1.277-2.075 0.344 0.305 1.541 2.312 0.999 2.075-0.344z" fill="inherit" transform="translate(-451.22 -331.38)"/><path d="m716.24 448.33c-0.311-1.261-1.471-1.761-2.017-0.332-0.251 0.655 0.058 1.06 0.985 1.287 1.137 0.28 1.299 0.132 1.032-0.955z" fill="inherit" transform="translate(-451.22 -331.38)"/><path d="m643.86 418.78c-0.31-1.261-1.47-1.761-2.018-0.332-0.249 0.653 0.06 1.059 0.986 1.287 1.137 0.28 1.3 0.13 1.032-0.955z" fill="inherit" transform="translate(-451.22 -331.38)"/><path d="m552.27 576.84c-0.109-0.4-0.68-0.727-1.268-0.727-1.624 0-0.405 2.924 0.684 2.068 0.429-0.337 0.692-0.941 0.584-1.341z" fill="inherit" transform="translate(-451.22 -331.38)"/><path d="m802.28 629.91c0.329-0.953-0.343-1.791-0.844-2.525l-0.403 1.689c-0.26 1.087-0.163 1.688 0.273 1.688 0.374 0 0.811-0.384 0.974-0.852z" fill="inherit" transform="translate(-451.22 -331.38)"/><path d="m615.46 614.38l0.996-2.08c-0.949 0-1.108 0.405-1.725 1.185-0.8 1.012-0.676 1.886-0.268 2.975z" fill="inherit" transform="translate(-451.22 -331.38)"/><path d="m465.86 555.95c0.443-1.28-1.478-1.8-1.93-0.623-0.475 1.236 1.501 1.863 1.93 0.623z" fill="inherit" transform="translate(-451.22 -331.38)"/><path d="m494.21 654.26c0.443-1.278-1.478-1.798-1.93-0.621-0.475 1.236 1.501 1.861 1.93 0.621z" fill="inherit" transform="translate(-451.22 -331.38)"/><path d="m554.16 436.8c-0.543-1.083-1.336-1.504-2.42-1.823l0.624 1.248c0.54 1.08 1.381 1.511 2.448 1.88z" fill="inherit" transform="translate(-451.22 -331.38)"/><path d="m724.1 546.03l1.176-0.59c-1.851-0.562-2.967-0.232-4.582 0.784 1.171 0.207 2.283 0.366 3.406-0.194z" fill="inherit" transform="translate(-451.22 -331.38)"/></g></svg>