<?xml version="1.0" encoding="UTF-8"?><svg xmlns="http://www.w3.org/2000/svg" xmlns:xlink="http://www.w3.org/1999/xlink" height="192.2" preserveAspectRatio="xMidYMid meet" version="1.0" viewBox="0.0 403.9 1000.0 192.2" width="1000.0" zoomAndPan="magnify"><g><g id="change1_1"><path d="M 1000 403.910156 L 1000 440.117188 L 963.804688 440.117188 L 963.804688 481.179688 L 925.167969 481.179688 L 925.167969 519.804688 L 886.542969 519.804688 L 886.542969 557.453125 L 847.34375 557.453125 L 847.34375 596.089844 L 619.5 596.089844 L 619.5 557.453125 L 577.804688 557.453125 L 577.804688 519.804688 L 539.167969 519.804688 L 539.167969 440.117188 L 462.882812 440.117188 L 462.882812 519.804688 L 424.246094 519.804688 L 424.246094 554.9375 L 385.613281 554.9375 L 385.613281 596.089844 L 118.578125 596.089844 L 118.578125 557.453125 L 76.882812 557.453125 L 76.882812 519.804688 L 38.246094 519.804688 L 38.246094 445.707031 L 0 445.707031 L 0 403.910156 L 1000 403.910156" fill="inherit"/></g><g id="change2_1"><path d="M 758.417969 518.097656 L 722.21875 518.097656 L 722.21875 554.296875 L 758.417969 554.296875 Z M 722.21875 481.902344 L 686.023438 481.902344 L 686.023438 518.097656 L 722.21875 518.097656 Z M 686.023438 518.097656 L 649.824219 518.097656 L 649.824219 554.296875 L 686.023438 554.296875 Z M 686.023438 445.703125 L 649.824219 445.703125 L 649.824219 481.902344 L 686.023438 481.902344 Z M 649.824219 481.902344 L 613.628906 481.902344 L 613.628906 518.097656 L 649.824219 518.097656 Z M 613.628906 445.703125 L 577.433594 445.703125 L 577.433594 481.902344 L 613.628906 481.902344 Z M 257.492188 518.097656 L 221.296875 518.097656 L 221.296875 554.296875 L 257.492188 554.296875 Z M 221.296875 481.902344 L 185.101562 481.902344 L 185.101562 518.097656 L 221.296875 518.097656 Z M 185.101562 518.097656 L 148.902344 518.097656 L 148.902344 554.296875 L 185.101562 554.296875 Z M 257.492188 445.703125 L 221.296875 445.703125 L 221.296875 481.902344 L 257.492188 481.902344 Z M 112.707031 445.703125 L 76.507812 445.703125 L 76.507812 481.902344 L 112.707031 481.902344 Z M 185.101562 445.703125 L 148.902344 445.703125 L 148.902344 481.902344 L 185.101562 481.902344 Z M 148.902344 518.097656 L 112.707031 518.097656 L 112.707031 481.902344 L 148.902344 481.902344 L 148.902344 518.097656" fill="#fff"/></g></g></svg>