<?xml version="1.0" encoding="UTF-8" standalone="no"?><svg xmlns="http://www.w3.org/2000/svg" xmlns:xlink="http://www.w3.org/1999/xlink" fill="#ffffff" height="56" preserveAspectRatio="xMidYMid meet" version="1" viewBox="4.0 4.0 56.0 56.0" width="56" zoomAndPan="magnify"><g data-name="Layer 36" id="change1_1"><path d="M20.135 25L40.531 25 43.865 21 23.468 21 20.135 25z" fill="inherit"/><path d="M20.135 30L23.468 34 43.865 34 40.531 30 20.135 30z" fill="inherit"/><path d="M20.135 43L40.531 43 43.865 39 23.468 39 20.135 43z" fill="inherit"/><path d="M32,4A28,28,0,1,0,60,32,28.032,28.032,0,0,0,32,4Zm0,54A26,26,0,1,1,58,32,26.03,26.03,0,0,1,32,58Z" fill="inherit"/><path d="M32,8A24,24,0,1,0,56,32,24.028,24.028,0,0,0,32,8ZM46.769,38.64l-5,6A1,1,0,0,1,41,45H18a1,1,0,0,1-.768-1.64l5-6A1,1,0,0,1,23,37H46a1,1,0,0,1,.769,1.64Zm.136-3.216A1,1,0,0,1,46,36H23a1,1,0,0,1-.768-.36l-5-6A1,1,0,0,1,18,28H41a1,1,0,0,1,.769.36l5,6A1,1,0,0,1,46.905,35.424ZM46.769,20.64l-5,6A1,1,0,0,1,41,27H18a1,1,0,0,1-.768-1.64l5-6A1,1,0,0,1,23,19H46a1,1,0,0,1,.769,1.64Z" fill="inherit"/></g></svg>