<?xml version="1.0" encoding="UTF-8" standalone="no"?><svg xmlns="http://www.w3.org/2000/svg" xmlns:xlink="http://www.w3.org/1999/xlink" data-name="Layer 1" fill="#000000" height="482.3" preserveAspectRatio="xMidYMid meet" version="1" viewBox="-1.2 -2.5 504.7 482.3" width="504.7" zoomAndPan="magnify"><g id="change1_1"><path d="M418.44507,470.63233c10.29054-6.41744,17.73054-16.14353,22.16066-27.34727,9.29047-23.49584,5.90657-50.03426,1.68974-74.22217-4.59285-26.346-10.51547-57.20724,3.18685-81.90895,6.89883-12.437,18.4788-20.73441,28.82492-30.079,10.38525-9.38016,18.36442-20.31983,21.9271-34.01714,7.25278-27.884-2.97335-56.39572-19.85832-78.63063a175.5757,175.5757,0,0,0-16.032-18.09152c-1.1273-7.55317-1.8581-15.14005-2.91255-22.19117C455.677,92.41216,453.137,80.56692,447.37714,70.07452a60.95351,60.95351,0,0,0-24.14337-23.86405c-21.0149-11.54766-46.64254-12.24114-69.80007-8.43947a153.97951,153.97951,0,0,0-17.33845,3.90119c-8.043,2.29713-16.14815,5.10735-24.55973,5.60177-16.341.96055-30.99644-8.88132-45.39625-15.21569A388.79106,388.79106,0,0,0,173.5292,4.34078c-30.29333-5.04313-61.91662-6.8326-91.92261.94269C54.39416,12.33479,30.01924,27.86371,14.44718,51.56884A87.37292,87.37292,0,0,0,.57349,88.14979c-1.78446,13.80366.70471,27.51382,5.9479,40.32924,5.67782,13.8785,13.7555,26.52377,20.86963,39.67288a182.01855,182.01855,0,0,1,16.42205,42.58624c7.6258,30.40329,9.19515,61.87168,13.98866,92.75769,4.04968,26.09322,11.21056,51.52621,24.97108,74.27681,12.34589,20.41193,30.003,38.52432,52.92233,46.5382,13.04959,4.563,26.87432,5.10153,40.49719,3.32972,15.62985-2.03287,30.80983-6.5258,46.41981-8.65819a89.32406,89.32406,0,0,1,43.78417,4.40223c13.5408,5.00281,25.90554,12.77148,37.93,20.64189,12.04108,7.88144,23.85422,16.29182,36.81752,22.62438,12.37518,6.04522,25.63867,10.537,39.4008,11.8629C393.60783,479.7723,407.185,477.65436,418.44507,470.63233Z" fill="#ffffff"/></g></svg>