<?xml version="1.0" encoding="UTF-8" standalone="no"?><svg xmlns="http://www.w3.org/2000/svg" xmlns:xlink="http://www.w3.org/1999/xlink" fill="#ffffff" height="500" preserveAspectRatio="xMidYMid meet" version="1" viewBox="0.0 0.0 500.0 500.0" width="500" zoomAndPan="magnify"><g id="change1_1"><path d="M 400 238.574219 C 400 214.296875 397.003906 190.019531 397.003906 190.019531 C 397.003906 190.019531 394.070312 169.34375 385.078125 160.242188 C 373.671875 148.292969 360.882812 148.234375 355.019531 147.535156 C 313.039062 144.5 250.066406 144.5 250.066406 144.5 L 249.933594 144.5 C 249.933594 144.5 186.964844 144.5 144.980469 147.535156 C 139.117188 148.234375 126.335938 148.292969 114.921875 160.242188 C 105.925781 169.34375 103 190.019531 103 190.019531 C 103 190.019531 100 214.296875 100 238.574219 L 100 261.332031 C 100 285.609375 103 309.886719 103 309.886719 C 103 309.886719 105.925781 330.558594 114.921875 339.664062 C 126.335938 351.613281 141.324219 351.234375 148 352.488281 C 172 354.789062 250 355.5 250 355.5 C 250 355.5 313.039062 355.40625 355.019531 352.371094 C 360.882812 351.671875 373.671875 351.613281 385.078125 339.664062 C 394.070312 330.558594 397.003906 309.886719 397.003906 309.886719 C 397.003906 309.886719 400 285.609375 400 261.332031 Z M 500 250 C 500 388.070312 388.066406 500 250 500 C 111.925781 500 0 388.070312 0 250 C 0 111.925781 111.925781 0 250 0 C 388.066406 0 500 111.925781 500 250 Z M 219.015625 204.621094 L 300.074219 246.914062 L 219.015625 288.914062 Z M 219.015625 204.621094" fill="inherit" fill-rule="evenodd"/></g></svg>